<svg id="Favicon" xmlns="http://www.w3.org/2000/svg" viewBox="0 0 50 50" xml:space="preserve"><path fill="#B43C36" d="M28 51H1V1h50v50H28m10.51-27.778c-.505.83-1.011 1.661-2.147 2.888l-2.398 4.566c-3.936-1.4-6.925-2.465-9.935-4.02 0 0-.026-.49.611-.8 1.089-.297 2.178-.593 3.87-1.088.498-.865.996-1.73 1.913-2.764 0 0 .449-.053 1.187-.054 1.115-.687 2.23-1.374 3.563-2.626.64-.762 1.282-1.525 2.612-2.571h5.531c2.245-4.046 1.826-4.978-2.64-5.114-3.323-.1-6.651-.029-9.977-.03H6.425c-.41 6.914 4.899 10.395 11.758 9.034.612 1.77 1.224 3.54 2.084 5.931.947.487 1.894.973 2.556 2.102-.156.71-.654 1.883-.417 2.058 4.119 3.033 8.328 5.943 12.842 9.108 1.85-5.256 3.354-9.53 5.47-14.22l1.15-6-.836-.2c-.643 1.206-1.285 2.412-2.521 3.8z"/><path fill="#FEFCFC" d="M18.06 19.923c-6.736 2.081-12.046-1.4-11.635-8.314H30.7c3.326.001 6.654-.07 9.976.03 4.467.136 4.886 1.068 2.641 5.114-1.904 0-3.717 0-6.167.125-.83.115-1.024.104-1.214-.34-7.14-.938-14.285-1.441-21.908-1.979 1.81 2.547 2.862 4.028 3.945 5.475.031-.035.086-.11.086-.11z"/><path fill="#FEFDFD" d="m24.051 27.147 9.914 3.53c.57-1.088 1.484-2.827 2.992-4.737 1.062-.467 1.53-.763 2.17-.848.44.457.71.702.979.947l-4.858 13.803c-4.514-3.165-8.723-6.075-12.842-9.108-.237-.175.261-1.349.788-2.439.679-.544.841-.8.857-1.148z"/><path fill="#FCFCFC" d="m35.931 16.971.875.049c-.35.779-.991 1.542-2.093 2.632a146.309 146.309 0 0 1-3.84 2.299s-.449.053-.981.166c-1.016 1.024-1.5 1.937-1.984 2.849a64.281 64.281 0 0 1-3.98.977 58.737 58.737 0 0 1-3.91.01c-.611-1.77-1.223-3.54-1.897-5.67-.062-.36-.117-.284.296-.268 6.113-1.004 11.813-2.024 17.514-3.044z"/><path fill="#FEFCFC" d="M40.412 25.83c-.575-.036-.844-.281-1.272-1.046-.117-.928-.076-1.337-.035-1.745l1.927-3.616.835.198c-.383 2-.766 4.001-1.455 6.21z"/><path fill="#B43F39" d="M20.143 26.263c.941-.285 2.007-.26 3.467-.165.394.068.42.559.43.804-.005.594-.167.85-.704 1.072-1.175-.427-2.122-.913-3.193-1.71zM31.242 21.95c.758-.656 1.884-1.313 3.363-2.015-.763.641-1.879 1.328-3.363 2.015zM28.21 24.867c.182-.813.666-1.726 1.472-2.666-.175.837-.673 1.702-1.472 2.666zM38.808 23.13c.256.317.215.726.16 1.442-.481.605-.949.901-1.696 1.17.227-.859.733-1.69 1.536-2.611z"/><path fill="#B43C37" d="M35.936 16.538C30.23 17.99 24.53 19.01 18.386 20.05c-1.496-1.463-2.549-2.944-4.358-5.49 7.623.537 14.768 1.04 21.908 1.978z"/></svg>